<svg width="24" height="20" viewBox="0 0 24 20" fill="none" xmlns="http://www.w3.org/2000/svg">
<path d="M9.99995 0.543483H13.2836C13.4029 0.573259 13.5225 0.543483 13.612 0.543483C14.8059 0.543483 16.0001 0.573259 17.194 0.603243C17.9403 0.633019 18.7163 0.633019 19.4626 0.722556C19.6717 0.752331 19.8507 0.752331 20.0596 0.782315C20.776 0.871851 21.4328 1.22999 21.97 1.70763C22.7163 2.39414 23.1342 3.37921 23.1639 4.39408C23.2535 5.14035 23.2832 5.85682 23.2832 6.60308C23.313 7.797 23.313 8.99119 23.313 10.1851H21.2235V8.45377H2.05942C2.05942 9.85675 2.05942 11.2598 2.08919 12.6628C2.11897 13.23 2.11897 13.7971 2.14895 14.3644C2.14895 14.4837 2.17873 14.633 2.17873 14.7525C2.17873 15.2002 2.3578 15.648 2.65639 15.9764C2.89522 16.245 3.25335 16.4241 3.64146 16.4241C3.76077 16.4241 3.88029 16.4539 4.02958 16.4539C4.50724 16.4836 5.01465 16.5136 5.49231 16.5136C6.68623 16.5434 7.88042 16.5734 9.07434 16.5734H14.6564V18.6629C12.6862 18.6926 10.716 18.6926 8.77583 18.6629C7.5519 18.6629 6.32797 18.6331 5.13405 18.6031C4.65639 18.5733 4.20874 18.5733 3.73107 18.5136C3.58178 18.4838 3.40271 18.4838 3.25342 18.4838C2.53695 18.3943 1.82064 18.0659 1.31323 17.5585C0.566964 16.872 0.149056 15.8869 0.119312 14.872C-1.90632e-07 13.7079 0 12.5139 0 11.3197V10.8123V8.96163C0.0297755 8.84232 0 8.7228 0 8.60349C0 7.82742 -6.13201e-07 7.0512 0.0297749 6.27514C0.0595503 5.64817 0.0595505 5.02141 0.119311 4.39449C0.149086 3.34961 0.596969 2.305 1.40278 1.61849C1.91022 1.14083 2.5967 0.842427 3.28343 0.752928C3.4625 0.723153 3.61179 0.723153 3.79086 0.723153C4.29829 0.693378 4.83574 0.663393 5.34314 0.633617C6.77592 0.573857 8.20891 0.573857 9.67143 0.573857C9.76118 0.543457 9.88049 0.573441 10 0.543457M5.25381 2.72271C4.77615 2.75249 4.26874 2.75249 3.79108 2.81225C3.67177 2.81225 3.58202 2.81225 3.46271 2.84202C3.16412 2.90178 2.86575 3.05108 2.65669 3.2897C2.38808 3.58829 2.20902 3.97621 2.20902 4.36432V4.60315C2.17924 4.87176 2.17924 5.14036 2.14926 5.37922H21.1641C21.1343 5.14038 21.1343 4.87178 21.1043 4.63295V4.36434C21.0746 4.0062 20.9551 3.64787 20.7462 3.37927C20.5371 3.11066 20.2388 2.90161 19.8806 2.81206C19.7911 2.78228 19.6716 2.78228 19.5523 2.78228C18.8358 2.72252 18.1195 2.69275 17.403 2.66297C14.9852 2.60321 12.5373 2.60321 10.1195 2.60321C8.47764 2.66297 6.86581 2.66297 5.25398 2.72273L5.25381 2.72271Z" fill="#8D8891"/>
<path d="M5.19367 11.6776C5.52204 11.6478 5.88018 11.6478 6.20854 11.6776C6.35783 11.6776 6.50713 11.7374 6.6862 11.7671C7.01456 11.8269 7.28316 12.1253 7.31317 12.4537C7.43248 12.8118 7.4027 13.1701 7.4027 13.5581C7.4027 13.7671 7.4027 13.976 7.34294 14.185C7.28318 14.3343 7.28318 14.4836 7.22363 14.6029C7.10432 14.812 6.89526 14.9911 6.65642 14.9911C6.56688 14.9911 6.47734 15.0508 6.35782 15.0508C6.05923 15.0806 5.79061 15.0806 5.49226 15.0806C5.28321 15.0806 5.07436 15.0806 4.8953 15.0208C4.77599 14.9911 4.65647 14.9911 4.56694 14.9313C4.29833 14.8418 4.08928 14.5432 4.08928 14.2746C3.99974 13.8269 3.99974 13.379 4.02952 12.9014C4.02952 12.7223 4.08928 12.5432 4.11905 12.3641C4.14883 12.0955 4.35788 11.8567 4.62649 11.7672C4.71602 11.7374 4.83554 11.7374 4.92508 11.7074C4.98463 11.7074 5.07415 11.6776 5.19367 11.6776Z" fill="white"/>
<path d="M19.7309 12.4541H21.3728V15.2601H23.9997V16.8124H21.3728V19.8273H19.7309V16.8124H17.0742V15.2601H19.7309V12.4541Z" fill="#8D8891"/>
</svg>
