<svg width="18" height="21" viewBox="0 0 18 21" fill="none" xmlns="http://www.w3.org/2000/svg">
<path d="M16.8996 20.1856C16.7426 20.1856 16.5876 20.1356 16.4576 20.0416L8.99961 14.6136L1.54161 20.0436C1.31361 20.2076 1.01161 20.2336 0.759609 20.1036C0.509609 19.9766 0.349609 19.7186 0.349609 19.4366V2.28564C0.349609 1.04564 1.35961 0.0356445 2.59961 0.0356445H15.3976C16.6376 0.0356445 17.6476 1.04564 17.6476 2.28564V19.4356C17.6476 19.7176 17.4896 19.9756 17.2376 20.1036C17.1316 20.1586 17.0146 20.1856 16.8976 20.1856H16.8996ZM8.99961 12.9356C9.15461 12.9356 9.30961 12.9836 9.43961 13.0796L16.1496 17.9626V2.28564C16.1496 1.87364 15.8126 1.53564 15.3996 1.53564H2.59961C2.18661 1.53564 1.84961 1.87364 1.84961 2.28564V17.9626L8.55961 13.0796C8.68961 12.9836 8.84461 12.9356 8.99961 12.9356Z" fill="#8D8891"/>
</svg>
