<svg width="13" height="13" viewBox="0 0 13 13" fill="none" xmlns="http://www.w3.org/2000/svg">
<path d="M8.39709 0.725914C8.19519 0.519311 7.95403 0.355145 7.68778 0.243062C7.42153 0.13098 7.13556 0.0732422 6.84668 0.0732422C6.5578 0.0732422 6.27183 0.13098 6.00558 0.243062C5.73933 0.355145 5.49817 0.519311 5.29627 0.725914L4.82973 1.20443L4.16216 1.19618C3.87319 1.19276 3.58646 1.24715 3.31882 1.35615C3.05118 1.46516 2.80804 1.62657 2.6037 1.8309C2.39935 2.03523 2.23793 2.27836 2.12892 2.54598C2.01991 2.8136 1.96552 3.10032 1.96894 3.38926L1.97644 4.05679L1.49939 4.52331C1.29278 4.72519 1.1286 4.96634 1.01651 5.23257C0.904421 5.4988 0.84668 5.78475 0.84668 6.07362C0.84668 6.36248 0.904421 6.64843 1.01651 6.91466C1.1286 7.1809 1.29278 7.42204 1.49939 7.62393L1.97719 8.09044L1.96894 8.75797C1.96552 9.04692 2.01991 9.33363 2.12892 9.60126C2.23793 9.86888 2.39935 10.112 2.6037 10.3163C2.80804 10.5207 3.05118 10.6821 3.31882 10.7911C3.58646 10.9001 3.87319 10.9545 4.16216 10.9511L4.82973 10.9436L5.29627 11.4206C5.49817 11.6272 5.73933 11.7913 6.00558 11.9034C6.27183 12.0155 6.5578 12.0732 6.84668 12.0732C7.13556 12.0732 7.42153 12.0155 7.68778 11.9034C7.95403 11.7913 8.19519 11.6272 8.39709 11.4206L8.86363 10.9428L9.5312 10.9511C9.82017 10.9545 10.1069 10.9001 10.3745 10.7911C10.6422 10.6821 10.8853 10.5207 11.0897 10.3163C11.294 10.112 11.4554 9.86888 11.5644 9.60126C11.6734 9.33363 11.7278 9.04692 11.7244 8.75797L11.7169 8.09044L12.194 7.62393C12.4006 7.42204 12.5648 7.1809 12.6768 6.91466C12.7889 6.64843 12.8467 6.36248 12.8467 6.07362C12.8467 5.78475 12.7889 5.4988 12.6768 5.23257C12.5648 4.96634 12.4006 4.72519 12.194 4.52331L11.7162 4.05679L11.7244 3.38926C11.7278 3.10032 11.6734 2.8136 11.5644 2.54598C11.4554 2.27836 11.294 2.03523 11.0897 1.8309C10.8853 1.62657 10.6422 1.46516 10.3745 1.35615C10.1069 1.24715 9.82017 1.19276 9.5312 1.19618L8.86363 1.20368L8.39709 0.726664V0.725914ZM8.61236 5.21408L6.36213 7.46417C6.32729 7.49909 6.28591 7.5268 6.24034 7.54571C6.19478 7.56461 6.14594 7.57434 6.0966 7.57434C6.04727 7.57434 5.99843 7.56461 5.95286 7.54571C5.9073 7.5268 5.86592 7.49909 5.83108 7.46417L4.70596 6.33913C4.6711 6.30426 4.64343 6.26287 4.62456 6.21731C4.60569 6.17175 4.59598 6.12293 4.59598 6.07362C4.59598 6.02431 4.60569 5.97548 4.62456 5.92992C4.64343 5.88437 4.6711 5.84297 4.70596 5.80811C4.74083 5.77324 4.78223 5.74558 4.82779 5.72671C4.87335 5.70784 4.92218 5.69813 4.97149 5.69813C5.0208 5.69813 5.06963 5.70784 5.11519 5.72671C5.16075 5.74558 5.20215 5.77324 5.23702 5.80811L6.0966 6.66839L8.0813 4.68306C8.15173 4.61265 8.24724 4.57309 8.34683 4.57309C8.44642 4.57309 8.54194 4.61265 8.61236 4.68306C8.68278 4.75348 8.72234 4.84899 8.72234 4.94857C8.72234 5.04816 8.68278 5.14367 8.61236 5.21408Z" fill="#1D9FEE"/>
</svg>
