<svg width="21" height="17" viewBox="0 0 21 17" fill="none" xmlns="http://www.w3.org/2000/svg">
<path fill-rule="evenodd" clip-rule="evenodd" d="M12.711 8.50006C12.711 7.88241 12.4582 7.32474 12.0493 6.923L12.8239 6.1344C13.4356 6.73542 13.8162 7.5738 13.8162 8.50006C13.8162 10.3313 12.3317 11.8159 10.5004 11.8159C9.60628 11.8159 8.79381 11.4612 8.198 10.8861L8.96552 10.0908C9.36353 10.4751 9.90399 10.7107 10.5004 10.7107C11.7212 10.7107 12.711 9.7209 12.711 8.50006Z" fill="#6F737D"/>
<path fill-rule="evenodd" clip-rule="evenodd" d="M2.3728 15.8462L17.8464 0.372192L18.6282 1.15378L3.15411 16.6278L2.3728 15.8462Z" fill="#6F737D"/>
<path fill-rule="evenodd" clip-rule="evenodd" d="M12.0107 2.48442C11.5737 2.42207 11.063 2.42096 10.5001 2.42096C9.56513 2.42096 8.50506 2.78733 7.40908 3.3889C6.32035 3.98636 5.24195 4.79017 4.28164 5.60544C3.32336 6.41924 2.49421 7.2345 1.90414 7.84713C1.67803 8.08175 1.48762 8.28622 1.33883 8.44886L4.22981 10.9465L3.50706 11.7828L0.198803 8.92458L0.195843 8.92199L0.193067 8.91977L0.192327 8.91885L0.191402 8.91829C-0.0387832 8.71938 -0.0650587 8.3717 0.132745 8.14059L0.552591 8.49993C0.132745 8.14059 0.13256 8.14077 0.132745 8.14059L0.134225 8.13892L0.137926 8.13467L0.151249 8.11912L0.201947 8.06102C0.245986 8.01069 0.310749 7.9376 0.394384 7.8449C0.561284 7.65949 0.803866 7.396 1.10786 7.08032C1.71532 6.44955 2.57184 5.60704 3.56622 4.76274C4.55874 3.92009 5.70005 3.06598 6.87722 2.42001C8.04681 1.77811 9.29839 1.31555 10.5 1.31555H10.5226C11.059 1.31555 11.6443 1.31555 12.167 1.3903C12.6899 1.46487 13.2502 1.62623 13.6541 2.03017L12.8724 2.81176C12.7236 2.6628 12.4549 2.5479 12.0107 2.48443L12.0107 2.48442ZM18.4378 7.13123C17.4588 6.14349 16.1306 4.92933 14.7089 3.98673L15.3198 3.06564C16.83 4.06707 18.2183 5.33973 19.2229 6.35296C19.7267 6.86123 20.1377 7.30811 20.4234 7.62842C20.5662 7.78866 20.6778 7.91744 20.7542 8.00663C20.7924 8.05122 20.8218 8.08619 20.8418 8.11006L20.8649 8.13763L20.8712 8.14504L20.8728 8.14707C20.8728 8.14726 20.8736 8.14818 20.4475 8.49993C20.8673 8.85927 20.8673 8.85945 20.8671 8.85945L20.8658 8.86093L20.8621 8.86519L20.8488 8.88073L20.7981 8.93884C20.7539 8.98917 20.6893 9.06226 20.6057 9.15496C20.4388 9.34036 20.1962 9.60385 19.892 9.91954C19.2845 10.5503 18.4282 11.393 17.4338 12.2371C16.4413 13.0798 15.2999 13.9339 14.1228 14.5798C12.9532 15.2217 11.7016 15.6843 10.5 15.6843C9.62125 15.6843 8.73346 15.371 7.89673 14.9412C7.05555 14.5091 6.22105 13.9355 5.44354 13.3671L6.09595 12.4749C6.86276 13.0355 7.64042 13.5671 8.40169 13.9581C9.16755 14.3513 9.87273 14.5789 10.5 14.5789C11.435 14.5789 12.495 14.2125 13.5912 13.6109C14.6797 13.0134 15.7581 12.2096 16.7185 11.3944C17.677 10.5806 18.5059 9.76531 19.096 9.15268C19.3493 8.88956 19.5582 8.66436 19.7135 8.49378C19.6779 8.45344 19.6395 8.40996 19.5984 8.36388C19.3234 8.05543 18.9258 7.62318 18.4378 7.1312L18.4378 7.13123ZM20.4475 8.49993L20.8671 8.85945C21.0418 8.65536 21.0446 8.3551 20.8736 8.14819L20.4475 8.49993Z" fill="#6F737D"/>
</svg>
