<svg width="25" height="20" viewBox="0 0 25 20" fill="none" xmlns="http://www.w3.org/2000/svg">
<path d="M23.8361 3.21639C23.4379 3.00398 22.9335 3.03046 22.5618 3.29602L17.6769 6.74738V4.27846C17.6769 2.39342 16.1635 0.880249 14.2787 0.880249H3.89821C2.01317 0.880249 0.5 2.39361 0.5 4.27846V16.0925C0.5 17.9776 2.01336 19.4908 3.89821 19.4908H14.2787C16.1637 19.4908 17.6769 17.9774 17.6769 16.0925V13.6236L22.5618 17.075C22.7742 17.2342 23.0131 17.2874 23.2787 17.2874C23.4646 17.2874 23.6503 17.2342 23.8363 17.1546C24.2344 16.9422 24.5 16.5174 24.5 16.0661V4.30509C24.5 3.82731 24.2344 3.42899 23.8363 3.21655L23.8361 3.21639ZM16.3494 16.0924C16.3494 17.2339 15.4201 18.1632 14.2786 18.1632H3.89816C2.75667 18.1632 1.82738 17.2339 1.82738 16.0924V4.30488C1.82738 3.16339 2.75667 2.2341 3.89816 2.2341H14.2786C15.4201 2.2341 16.3494 3.16339 16.3494 4.30488V16.0924ZM17.6768 8.39335L19.7476 6.90668V13.4642L17.6768 11.9775V8.39335ZM23.1724 15.9066L21.1016 14.4199V5.97748L23.1724 4.49081V15.9066Z" fill="#F34A65"/>
<path d="M9.10165 6.18982C6.71238 6.18982 4.53531 7.51725 3.44682 9.66763C3.26089 10.0128 3.26089 10.4374 3.44682 10.7827C4.53536 12.933 6.71224 14.2605 9.10165 14.2605C11.4909 14.2605 13.668 12.933 14.7565 10.7827C14.9424 10.4375 14.9424 10.0129 14.7565 9.66763C13.668 7.51725 11.4909 6.18982 9.10165 6.18982ZM9.10165 12.88C7.21662 12.88 5.51751 11.8447 4.6416 10.1987C5.5177 8.52609 7.2168 7.51734 9.10165 7.51734C10.9865 7.51734 12.6591 8.52604 13.5353 10.1987C12.6592 11.8713 10.9601 12.88 9.10165 12.88Z" fill="#F34A65"/>
<path d="M11.5706 10.1987C11.5706 11.5622 10.4652 12.6676 9.10167 12.6676C7.73812 12.6676 6.63257 11.5622 6.63257 10.1987C6.63257 8.8351 7.73812 7.72974 9.10167 7.72974C10.4652 7.72974 11.5706 8.8351 11.5706 10.1987Z" fill="#F34A65"/>
</svg>
