<svg width="20" height="21" viewBox="0 0 20 21" fill="none" xmlns="http://www.w3.org/2000/svg">
<path d="M17.75 20.6855H2.25C1.01 20.6855 0 19.6755 0 18.4355V2.93555C0 1.69555 1.01 0.685547 2.25 0.685547H17.75C18.99 0.685547 20 1.69555 20 2.93555V18.4355C20 19.6755 18.99 20.6855 17.75 20.6855ZM2.25 2.18555C1.836 2.18555 1.5 2.52255 1.5 2.93555V18.4355C1.5 18.8485 1.836 19.1855 2.25 19.1855H17.75C18.164 19.1855 18.5 18.8485 18.5 18.4355V2.93555C18.5 2.52255 18.164 2.18555 17.75 2.18555H2.25Z" fill="#8D8891"/>
<path d="M15 7.32556H5C4.586 7.32556 4.25 6.98856 4.25 6.57556C4.25 6.16256 4.586 5.82556 5 5.82556H15C15.414 5.82556 15.75 6.16056 15.75 6.57556C15.75 6.99056 15.414 7.32556 15 7.32556ZM15 11.4356H5C4.586 11.4356 4.25 11.0996 4.25 10.6856C4.25 10.2716 4.586 9.93556 5 9.93556H15C15.414 9.93556 15.75 10.2716 15.75 10.6856C15.75 11.0996 15.414 11.4356 15 11.4356ZM10 15.5456H5C4.586 15.5456 4.25 15.2106 4.25 14.7956C4.25 14.3806 4.586 14.0456 5 14.0456H10C10.414 14.0456 10.75 14.3826 10.75 14.7956C10.75 15.2086 10.414 15.5456 10 15.5456Z" fill="#8D8891"/>
</svg>
