<svg width="17" height="11" viewBox="0 0 17 11" fill="none" xmlns="http://www.w3.org/2000/svg">
<path d="M15.578 1.09558C15.343 0.954515 15.0742 0.879955 14.8002 0.879955C14.5263 0.879955 14.2573 0.954515 14.0225 1.09558L11.9335 2.29551V2.07322C11.9335 1.54278 11.7227 1.03416 11.3477 0.65904C10.9726 0.283914 10.4639 0.0732422 9.93337 0.0732422H1.99998C1.46953 0.0732422 0.960761 0.283902 0.585798 0.65904C0.210672 1.03417 0 1.54278 0 2.07322V8.07327C0 8.60371 0.21066 9.11232 0.585798 9.48744C0.960769 9.86257 1.46953 10.0732 1.99998 10.0732H9.93337C10.4638 10.0732 10.9726 9.86258 11.3477 9.48744C11.7227 9.11232 11.9335 8.60371 11.9335 8.07327V7.60652L13.9113 8.96208C14.1747 9.13678 14.4841 9.22963 14.8001 9.2287C15.0545 9.22266 15.3045 9.16205 15.5335 9.05091C15.7827 8.91775 15.991 8.71902 16.136 8.4763C16.2808 8.23355 16.3567 7.95594 16.3557 7.6732V2.42871C16.3555 2.1576 16.2834 1.89128 16.1469 1.65708C16.0103 1.42286 15.8139 1.2291 15.578 1.09548L15.578 1.09558Z" fill="#1AD343"/>
</svg>
