<svg width="15" height="20" viewBox="0 0 15 20" fill="none" xmlns="http://www.w3.org/2000/svg">
<path d="M7.96906 13.0408H7.09158C5.17317 13.0408 3.62221 11.4898 3.62221 9.57142L3.62207 3.46936C3.62207 1.55095 5.17306 0 7.09143 0H7.96891C9.88732 0 11.4383 1.55099 11.4383 3.46936V9.55101C11.4588 11.4898 9.88729 13.0409 7.96906 13.0409L7.96906 13.0408ZM7.1118 1.73463C6.15261 1.73463 5.37703 2.51018 5.37703 3.4694V9.55105C5.37703 10.5102 6.15258 11.2858 7.1118 11.2858H7.98928C8.94847 11.2858 9.72405 10.5103 9.72405 9.55105L9.7242 3.4694C9.7242 2.51021 8.94865 1.73463 7.98942 1.73463H7.1118Z" fill="#FF5C00"/>
<path d="M7.54075 16.0816C3.704 16.0816 0.581543 13.3469 0.581543 9.99992C0.581543 9.51008 0.969336 9.12244 1.45902 9.12244C1.94886 9.12244 2.33651 9.51023 2.33651 9.99992C2.33651 12.3877 4.68338 14.3469 7.56101 14.3469C10.4386 14.3469 12.7855 12.3876 12.7855 9.99992C12.7855 9.51008 13.1733 9.12244 13.663 9.12244C14.1528 9.12244 14.5405 9.51023 14.5405 9.99992C14.5001 13.3469 11.3776 16.0816 7.54082 16.0816H7.54075Z" fill="#FF5C00"/>
<path d="M7.54057 20C7.05073 20 6.66309 19.6122 6.66309 19.1225V15.6531C6.66309 15.1633 7.05088 14.7756 7.54057 14.7756C8.0304 14.7756 8.41805 15.1634 8.41805 15.6531V19.1225C8.41805 19.6123 8.0304 20 7.54057 20Z" fill="#FF5C00"/>
<path d="M11.8878 19.9998H3.19389C2.70405 19.9998 2.31641 19.612 2.31641 19.1224C2.31641 18.6325 2.7042 18.2449 3.19389 18.2449H11.8878C12.3776 18.2449 12.7653 18.6327 12.7653 19.1224C12.7654 19.6122 12.3776 19.9998 11.8879 19.9998H11.8878Z" fill="#FF5C00"/>
</svg>
