<svg width="21" height="19" viewBox="0 0 21 19" fill="none" xmlns="http://www.w3.org/2000/svg">
<path d="M17.75 0.703491H3.25C1.733 0.703491 0.5 1.93749 0.5 3.45549V15.9505C0.5 17.4685 1.733 18.7035 3.25 18.7035H17.75C19.267 18.7035 20.5 17.4685 20.5 15.9505V3.45549C20.5 1.93749 19.267 0.703491 17.75 0.703491ZM3.25 2.20349H17.75C18.44 2.20349 19 2.76349 19 3.45349V4.16749L10.95 9.53449C10.677 9.71449 10.324 9.71649 10.05 9.53249L2 4.16749V3.45349C2 2.76349 2.56 2.20349 3.25 2.20349ZM17.75 17.2015H3.25C2.56 17.2015 2 16.6415 2 15.9515V5.92549L9.24 10.7555C9.623 11.0115 10.062 11.1395 10.5 11.1395C10.94 11.1395 11.377 11.0115 11.76 10.7565L19 5.92649V15.9485C19 16.6385 18.44 17.1985 17.75 17.1985V17.2015Z" fill="#8D8891"/>
</svg>
