<svg width="22" height="23" viewBox="0 0 22 23" fill="none" xmlns="http://www.w3.org/2000/svg">
<path d="M16 13.1855C16.8284 13.1855 17.5 12.514 17.5 11.6855C17.5 10.8571 16.8284 10.1855 16 10.1855C15.1716 10.1855 14.5 10.8571 14.5 11.6855C14.5 12.514 15.1716 13.1855 16 13.1855Z" fill="#8D8891"/>
<path d="M11 13.1855C11.8284 13.1855 12.5 12.514 12.5 11.6855C12.5 10.8571 11.8284 10.1855 11 10.1855C10.1716 10.1855 9.5 10.8571 9.5 11.6855C9.5 12.514 10.1716 13.1855 11 13.1855Z" fill="#8D8891"/>
<path d="M6 13.1855C6.82843 13.1855 7.5 12.514 7.5 11.6855C7.5 10.8571 6.82843 10.1855 6 10.1855C5.17157 10.1855 4.5 10.8571 4.5 11.6855C4.5 12.514 5.17157 13.1855 6 13.1855Z" fill="#8D8891"/>
<path d="M11 22.4355C5.072 22.4355 0.25 17.6135 0.25 11.6855C0.25 5.75755 5.072 0.935547 11 0.935547C16.928 0.935547 21.75 5.75755 21.75 11.6855C21.75 17.6135 16.928 22.4355 11 22.4355ZM11 2.43555C5.9 2.43555 1.75 6.58555 1.75 11.6855C1.75 16.7855 5.9 20.9355 11 20.9355C16.1 20.9355 20.25 16.7855 20.25 11.6855C20.25 6.58555 16.1 2.43555 11 2.43555Z" fill="#8D8891"/>
</svg>
