<svg width="18" height="17" viewBox="0 0 18 17" fill="none" xmlns="http://www.w3.org/2000/svg">
<path d="M16.805 12.2796C16.7885 12.2664 15.034 10.9224 15.0646 7.28927C15.0812 5.19382 14.3926 3.33176 13.1223 2.04651C11.9843 0.893686 10.4434 0.256445 8.78405 0.248169H8.77329C7.11481 0.256445 5.57385 0.893686 4.43509 2.04734C3.16557 3.33258 2.47536 5.19382 2.49357 7.28927C2.52419 10.8727 0.821847 12.2275 0.753985 12.2796C0.538812 12.4393 0.451088 12.7182 0.534674 12.9731C0.619088 13.228 0.857433 13.3993 1.12392 13.3993H5.19564C5.28005 15.3111 6.84833 16.8421 8.77909 16.8421C10.7098 16.8421 12.2765 15.3111 12.3601 13.3993H16.4334C16.6999 13.3993 16.9383 13.2289 17.021 12.974C17.1063 12.7199 17.0185 12.4402 16.8034 12.2804L16.805 12.2796ZM8.77992 15.5982C7.5344 15.5982 6.5206 14.6242 6.4395 13.3985H11.1203C11.0376 14.6233 10.0254 15.5999 8.77992 15.5999V15.5982ZM2.47371 12.1571C3.08612 11.2203 3.75481 9.6512 3.73495 7.27769C3.72005 5.4901 4.26792 3.98224 5.31812 2.91879C6.22267 2.00265 7.45329 1.49534 8.77992 1.48955C10.1065 1.49617 11.3347 2.00265 12.2392 2.91962C13.2903 3.98307 13.8389 5.4901 13.8241 7.27851C13.8042 9.65203 14.4737 11.222 15.0861 12.158H2.47371V12.1571Z" fill="#8D8891"/>
</svg>
