<?xml version="1.0" standalone="no"?>
<!DOCTYPE svg PUBLIC "-//W3C//DTD SVG 20010904//EN"
 "http://www.w3.org/TR/2001/REC-SVG-20010904/DTD/svg10.dtd">
<svg version="1.0" xmlns="http://www.w3.org/2000/svg"
 width="1873.000000pt" height="1920.000000pt" viewBox="0 0 1873.000000 1920.000000"
 preserveAspectRatio="xMidYMid meet">

<g transform="translate(0.000000,1920.000000) scale(0.100000,-0.100000)"
fill="#000000" stroke="none">
<path d="M9320 19194 c-151 -27 -278 -100 -395 -226 -306 -330 -488 -914 -524
-1685 -5 -105 -11 -196 -15 -201 -3 -5 -70 -12 -149 -16 -1795 -85 -3225
-1205 -3988 -3125 -126 -318 -253 -736 -323 -1066 -64 -302 -85 -461 -126
-945 -276 -3303 -659 -5442 -1202 -6730 -315 -743 -689 -1202 -1172 -1435
-271 -130 -500 -179 -1056 -224 -155 -13 -190 -24 -252 -79 -181 -164 -142
-499 70 -604 l47 -23 9130 0 9130 0 47 23 c96 48 159 141 180 268 13 79 -1
172 -37 244 -29 58 -109 132 -161 148 -22 7 -142 22 -269 33 -249 21 -411 46
-557 84 -683 177 -1157 668 -1555 1610 -541 1279 -935 3476 -1208 6735 -51
608 -63 703 -130 1015 -154 715 -469 1467 -864 2060 -288 432 -656 834 -1036
1131 -675 527 -1532 841 -2408 880 -81 4 -150 11 -152 15 -3 4 -10 112 -15
241 -25 558 -115 983 -280 1323 -138 283 -313 465 -509 525 -64 20 -175 32
-221 24z"/>
<path d="M7510 2409 c-57 -211 -77 -534 -45 -741 85 -565 377 -1033 833 -1338
321 -215 678 -323 1067 -323 192 0 300 13 475 58 844 215 1439 978 1440 1845
0 195 -17 342 -59 498 l-12 42 -1844 0 -1844 0 -11 -41z"/>
</g>
</svg>
