<svg width="13" height="14" viewBox="0 0 13 14" fill="none" xmlns="http://www.w3.org/2000/svg">
<path d="M6.42142 0.881779L6.50007 0.877808C6.89836 0.877808 7.22594 1.1805 7.26533 1.56839L7.2693 1.64704V6.41627H12.0385C12.4368 6.41627 12.7644 6.71896 12.8038 7.10685L12.8078 7.1855C12.8078 7.58378 12.5051 7.91137 12.1172 7.95076L12.0385 7.95473H7.2693V12.724C7.2693 13.1222 6.96661 13.4498 6.57872 13.4892L6.50007 13.4932C6.10179 13.4932 5.77421 13.1905 5.73481 12.8026L5.73084 12.724V7.95473H0.961613C0.563331 7.95473 0.235747 7.65204 0.196354 7.26415L0.192383 7.1855C0.192383 6.78722 0.495075 6.45963 0.882964 6.42024L0.961613 6.41627H5.73084V1.64704C5.73084 1.24876 6.03353 0.921171 6.42142 0.881779L6.50007 0.877808L6.42142 0.881779Z" fill="white"/>
</svg>
