<svg width="19" height="19" viewBox="0 0 19 19" fill="none" xmlns="http://www.w3.org/2000/svg">
<path d="M17.1483 8.31303C16.8405 8.31303 16.5768 8.0932 16.4892 7.78567C15.742 4.48906 12.8409 2.15946 9.41243 2.15946C5.98395 2.15946 3.08286 4.48906 2.33571 7.78567C2.24771 8.13735 1.89603 8.35718 1.54468 8.26919C1.193 8.18119 0.973171 7.82951 1.06116 7.47816C1.94018 3.56618 5.41276 0.841064 9.41257 0.841064C13.4125 0.841064 16.8848 3.56618 17.764 7.47816C17.852 7.82984 17.6321 8.18151 17.2805 8.26919C17.2363 8.26888 17.1925 8.31303 17.1486 8.31303H17.1483Z" fill="#6F737D"/>
<path d="M17.3672 8.48843C17.2793 8.48843 17.1916 8.48843 17.1036 8.44459L14.8178 7.47759C14.4662 7.34574 14.3343 6.95022 14.4662 6.59857C14.598 6.24689 14.9935 6.11505 15.3452 6.24689L17.0155 6.95024L17.7189 5.27988C17.8507 4.9282 18.2463 4.79636 18.5979 4.9282C18.9496 5.06004 19.0814 5.45556 18.9496 5.80722L17.9826 8.09295C17.8946 8.26863 17.8069 8.40078 17.6309 8.44462C17.5432 8.48847 17.4552 8.48843 17.3672 8.48843Z" fill="#6F737D"/>
<path d="M9.54343 18.1587C5.54347 18.1587 2.0712 15.4336 1.19202 11.5216C1.10403 11.1699 1.32386 10.8183 1.67554 10.7306C2.02722 10.6426 2.37889 10.8624 2.46657 11.2141C3.21376 14.5107 6.11482 16.8403 9.54329 16.8403C12.9718 16.8403 15.8729 14.5107 16.62 11.2141C16.708 10.8624 17.0597 10.6426 17.411 10.7306C17.7627 10.8186 17.9825 11.1703 17.8946 11.5216C17.0159 15.4336 13.5871 18.1587 9.54315 18.1587H9.54343Z" fill="#6F737D"/>
<path d="M0.665507 14.1157C0.577511 14.1157 0.489821 14.1157 0.401825 14.0718C0.0501476 13.94 -0.0816931 13.5445 0.0501477 13.1928L1.01715 10.9071C1.14899 10.5554 1.54452 10.4236 1.89617 10.5554L4.1819 11.5224C4.53358 11.6542 4.66542 12.0498 4.53358 12.4014C4.40174 12.7531 4.00621 12.8849 3.65456 12.7531L1.9842 12.0497L1.28085 13.6763C1.19285 13.94 0.929181 14.1157 0.665507 14.1157Z" fill="#6F737D"/>
</svg>
