<svg width="18" height="21" viewBox="0 0 18 21" fill="none" xmlns="http://www.w3.org/2000/svg">
<path d="M9.00039 10.5013C10.3554 10.5013 11.8724 10.3513 12.8404 9.24531C13.6544 8.31531 13.9184 6.87731 13.6464 4.85331C13.2664 2.02831 11.5294 0.341309 9.00039 0.341309C6.47139 0.341309 4.73439 2.02831 4.35439 4.85531C4.08239 6.87731 4.34639 8.31531 5.16039 9.24531C6.12839 10.3523 7.64539 10.5013 9.00039 10.5013ZM5.84039 5.05331C6.00239 3.85331 6.62739 1.84131 9.00039 1.84131C11.3734 1.84131 11.9984 3.85431 12.1604 5.05331C12.3674 6.60331 12.2174 7.68031 11.7104 8.25831C11.2554 8.77831 10.4444 9.00131 9.00039 9.00131C7.55639 9.00131 6.74539 8.77831 6.29039 8.25831C5.78339 7.68031 5.63339 6.60231 5.84039 5.05331ZM17.2804 17.9213C16.4034 14.3953 12.9984 11.9313 9.00039 11.9313C5.00239 11.9313 1.59739 14.3953 0.720394 17.9213C0.548394 18.6133 0.692393 19.3213 1.11539 19.8613C1.52339 20.3813 2.15539 20.6813 2.84839 20.6813H15.1524C15.8454 20.6813 16.4774 20.3813 16.8854 19.8613C17.3094 19.3213 17.4524 18.6143 17.2794 17.9213H17.2804ZM15.7044 18.9373C15.5784 19.0973 15.3884 19.1833 15.1524 19.1833H2.84839C2.61339 19.1833 2.42239 19.0983 2.29639 18.9373C2.15939 18.7633 2.11639 18.5253 2.17639 18.2833C2.88639 15.4283 5.69339 13.4333 9.00039 13.4333C12.3074 13.4333 15.1144 15.4273 15.8244 18.2833C15.8844 18.5253 15.8414 18.7633 15.7044 18.9373Z" fill="#8D8891"/>
</svg>
