<svg width="25" height="25" viewBox="0 0 25 25" fill="none" xmlns="http://www.w3.org/2000/svg">
<path fill-rule="evenodd" clip-rule="evenodd" d="M12.5957 2.18555C6.80617 2.18555 2.0957 6.89608 2.0957 12.6855C2.0957 18.475 6.80624 23.1855 12.5957 23.1855C18.3852 23.1855 23.0957 18.475 23.0957 12.6855C23.0957 6.89608 18.3852 2.18555 12.5957 2.18555ZM12.5957 24.6855C5.97883 24.6855 0.595703 19.3025 0.595703 12.6855C0.595703 6.0686 5.97876 0.685547 12.5957 0.685547C19.2126 0.685547 24.5957 6.0686 24.5957 12.6855C24.5957 19.3025 19.2126 24.6855 12.5957 24.6855Z" fill="#8D8891"/>
<path fill-rule="evenodd" clip-rule="evenodd" d="M10.9423 8.36435V16.7001L16.7773 12.5323L10.9423 8.36435ZM10.4936 18.6233C10.1656 18.6233 9.84231 18.4708 9.63805 18.1846C9.50987 18.0046 9.44238 17.7936 9.44238 17.5738V7.48967C9.44238 6.91106 9.91322 6.43994 10.4924 6.43994C10.7132 6.43994 10.9242 6.50743 11.1034 6.6356L18.1615 11.6773C18.6326 12.0139 18.7419 12.671 18.4055 13.1419C18.3401 13.2352 18.2572 13.3182 18.1615 13.3864L11.1028 18.4284C10.9181 18.5599 10.7049 18.6232 10.4935 18.6232L10.4936 18.6233Z" fill="#8D8891"/>
</svg>
