<svg width="28" height="20" viewBox="0 0 28 20" fill="none" xmlns="http://www.w3.org/2000/svg">
<path d="M26.9507 4.41603C26.9507 2.07234 25.2268 0.186974 23.0967 0.186974C20.2113 0.0520817 17.2687 0 14.2615 0H13.324C10.3241 0 7.37627 0.0520818 4.49093 0.187495C2.36599 0.187495 0.642076 2.08328 0.642076 4.42696C0.511871 6.28056 0.456664 8.13467 0.459789 9.98879C0.454581 11.8429 0.513607 13.6988 0.636868 15.5563C0.636868 17.9 2.36078 19.801 4.48572 19.801C7.51689 19.9416 10.6262 20.0041 13.7876 19.9989C16.9541 20.0094 20.0547 19.9434 23.0894 19.801C25.2195 19.801 26.9434 17.9 26.9434 15.5563C27.0684 13.697 27.1257 11.8429 27.1205 9.98358C27.1323 8.12947 27.0757 6.27361 26.9507 4.41603ZM11.2407 15.098V4.86393L18.7926 9.97837L11.2407 15.098Z" fill="#7FC15E"/>
</svg>
